<svg width="21" height="18" viewBox="0 0 21 18" fill="none" xmlns="http://www.w3.org/2000/svg">
<path d="M1.91436 17.1934C0.940608 17.1934 0.132597 16.4061 0.146409 15.4254C0.132597 14.4655 0.940608 13.6782 1.91436 13.6782C2.85359 13.6782 3.67541 14.4655 3.68232 15.4254C3.67541 16.4061 2.85359 17.1934 1.91436 17.1934ZM0.146409 8.11878C0.132597 7.15884 0.940608 6.37155 1.91436 6.37155C2.85359 6.37155 3.67541 7.15884 3.68232 8.11878C3.67541 9.09945 2.85359 9.88674 1.91436 9.88674C0.940608 9.88674 0.132597 9.09945 0.146409 8.11878ZM12.3481 17H6.12437V0.0276237H12.3481C17.5194 0.0276237 20.71 3.20994 20.71 8.50552C20.71 13.8094 17.5194 17 12.3481 17ZM10.1188 13.5856H12.1907C15.1078 13.5856 16.7072 12.1934 16.7072 8.50552C16.7072 4.82597 15.1078 3.44199 12.1409 3.44199H10.1188V13.5856Z" fill="white"/>
</svg>
