<svg width="25" height="26" viewBox="0 0 25 26" fill="none" xmlns="http://www.w3.org/2000/svg">
<path d="M13.2767 21.6268C14.2732 21.6268 15.2306 21.4752 16.1489 21.1719C17.0672 20.8687 17.9269 20.4335 18.728 19.8662C17.9269 19.2989 17.0672 18.8637 16.1489 18.5604C15.2306 18.2572 14.2732 18.1056 13.2767 18.1056C12.2802 18.1056 11.3228 18.2572 10.4045 18.5604C9.48613 18.8637 8.62642 19.2989 7.82532 19.8662C8.62642 20.4335 9.48613 20.8687 10.4045 21.1719C11.3228 21.4752 12.2802 21.6268 13.2767 21.6268ZM16.3834 12.0023L14.7128 10.3298C14.8105 10.1733 14.8886 10.007 14.9472 9.83099C15.0059 9.65493 15.0352 9.47887 15.0352 9.30282C15.0352 8.81377 14.8642 8.39808 14.5223 8.05575C14.1803 7.71342 13.7651 7.54225 13.2767 7.54225C13.1008 7.54225 12.925 7.5716 12.7491 7.63028C12.5733 7.68897 12.4072 7.76722 12.2509 7.86502L10.5803 6.19249C10.9515 5.85994 11.3667 5.61053 11.8259 5.44425C12.2851 5.27797 12.7687 5.19484 13.2767 5.19484C14.4099 5.19484 15.3771 5.59585 16.1782 6.39789C16.9793 7.19992 17.3798 8.16823 17.3798 9.30282C17.3798 9.81142 17.2968 10.2956 17.1307 10.7553C16.9646 11.215 16.7155 11.6307 16.3834 12.0023ZM23.0657 18.6925L21.3658 16.9906C21.7956 16.2668 22.118 15.5039 22.3329 14.7019C22.5479 13.8998 22.6553 13.0782 22.6553 12.2371C22.6553 9.61581 21.7468 7.39554 19.9297 5.57629C18.1125 3.75704 15.8949 2.84742 13.2767 2.84742C12.4365 2.84742 11.6159 2.95501 10.8148 3.17019C10.0137 3.38537 9.25166 3.70814 8.52872 4.1385L6.82884 2.43662C7.78624 1.81064 8.81204 1.33138 9.90621 0.998826C11.0004 0.666275 12.1239 0.5 13.2767 0.5C14.8984 0.5 16.4224 0.808099 17.8488 1.4243C19.2751 2.04049 20.5158 2.87676 21.5709 3.9331C22.626 4.98944 23.4613 6.23161 24.0768 7.65963C24.6923 9.08764 25 10.6135 25 12.2371C25 13.3912 24.8339 14.516 24.5018 15.6115C24.1696 16.707 23.6909 17.734 23.0657 18.6925ZM13.2767 23.9742C11.6549 23.9742 10.1309 23.6661 8.70457 23.0499C7.27823 22.4337 6.03751 21.5974 4.98241 20.5411C3.92731 19.4847 3.09203 18.2426 2.47655 16.8146C1.86108 15.3865 1.55334 13.8607 1.55334 12.2371C1.55334 11.0829 1.71454 9.95814 2.03693 8.86268C2.35932 7.76721 2.83314 6.73044 3.45838 5.75235L0 2.26056L1.67057 0.588028L24.8828 23.8275L23.2122 25.5L5.18757 7.48357C4.75772 8.20736 4.43533 8.97027 4.2204 9.7723C4.00547 10.5743 3.89801 11.3959 3.89801 12.2371C3.89801 13.3521 4.08363 14.4182 4.45486 15.4354C4.8261 16.4527 5.36342 17.3818 6.06682 18.223C7.12192 17.421 8.26006 16.8097 9.48124 16.3891C10.7024 15.9685 11.9676 15.7582 13.2767 15.7582C14.0191 15.7582 14.7616 15.8365 15.5041 15.993C16.2466 16.1495 16.9695 16.3646 17.6729 16.6385L21.5709 20.5411C20.4572 21.6561 19.1872 22.507 17.7608 23.0939C16.3345 23.6808 14.8398 23.9742 13.2767 23.9742Z" fill="#323A45"/>
</svg>
