<svg width="18" height="18" viewBox="0 0 18 18" fill="none" xmlns="http://www.w3.org/2000/svg">
<path d="M12.1818 8.34091L10.8864 7.04545L14.1364 2.90909H6.75L4.93182 1.09091H16C16.3788 1.09091 16.6515 1.25758 16.8182 1.59091C16.9848 1.92424 16.9545 2.24242 16.7273 2.54545L12.1818 8.34091ZM16.7045 18L11.4545 12.75V14.7273C11.4545 14.9848 11.3674 15.2008 11.1932 15.375C11.0189 15.5492 10.803 15.6364 10.5455 15.6364H8.72727C8.4697 15.6364 8.25379 15.5492 8.07955 15.375C7.9053 15.2008 7.81818 14.9848 7.81818 14.7273V9.11364L0 1.29545L1.27273 0L18 16.7273L16.7045 18Z" fill="#323A45"/>
</svg>
