<svg width="800" height="200" viewBox="0 0 800 200" fill="none" xmlns="http://www.w3.org/2000/svg">
<rect x="0.5" y="0.5" width="799" height="199" stroke="#F47961"/>
<mask id="path-2-inside-1_9728_202" fill="white">
<path d="M0 0H400V200H0V0Z"/>
</mask>
<path d="M0 0V1H400V0V-1H0V0Z" fill="#EF5A5A" mask="url(#path-2-inside-1_9728_202)"/>
<mask id="path-4-inside-2_9728_202" fill="white">
<path d="M0 0H200V200H0V0Z"/>
</mask>
<path d="M0 0H200V200H0V0Z" fill="white"/>
<path d="M0 0V-1H-1V0H0ZM0 200H-1V201H0V200ZM0 0V1H200V0V-1H0V0ZM200 200V199H0V200V201H200V200ZM0 200H1V0H0H-1V200H0Z" fill="#F47961" mask="url(#path-4-inside-2_9728_202)"/>
<mask id="path-6-inside-3_9728_202" fill="white">
<path d="M200 0H400V200H200V0Z"/>
</mask>
<path d="M200 0H400V200H200V0Z" fill="white"/>
<path d="M400 0H401V-1H400V0ZM400 200V201H401V200H400ZM200 0V1H400V0V-1H200V0ZM400 0H399V200H400H401V0H400ZM400 200V199H200V200V201H400V200Z" fill="#F47961" mask="url(#path-6-inside-3_9728_202)"/>
<mask id="path-8-inside-4_9728_202" fill="white">
<path d="M400 0H600V200H400V0Z"/>
</mask>
<path d="M400 0H600V200H400V0Z" fill="white"/>
<path d="M400 0V1H600V0V-1H400V0ZM600 200V199H400V200V201H600V200Z" fill="#F47961" mask="url(#path-8-inside-4_9728_202)"/>
<mask id="path-10-inside-5_9728_202" fill="white">
<path d="M600 0H800V200H600V0Z"/>
</mask>
<path d="M600 0H800V200H600V0Z" fill="white"/>
<path d="M800 0H801V-1H800V0ZM800 200V201H801V200H800ZM600 0V1H800V0V-1H600V0ZM800 0H799V200H800H801V0H800ZM800 200V199H600V200V201H800V200Z" fill="#F47961" mask="url(#path-10-inside-5_9728_202)"/>
</svg>
