<svg width="52" height="20" viewBox="0 0 52 20" fill="none" xmlns="http://www.w3.org/2000/svg">
<path d="M8.77992 4.4185V5.11256H5.25437V5.8446H7.77854V7.81974H2.68876V8.54143H8.03061V9.24585H1.78061V7.17748H6.86694V6.5214H1.76335V5.8446H4.33586V5.11256H0.824119V4.4185H8.77992ZM1.21086 3.37568C2.88904 3.28245 4.06998 2.76795 4.25644 2.02554H1.61486V1.31767H4.33931V0.544189H5.25091V1.31767H7.98917V2.02554H5.33033C5.51335 2.76795 6.69428 3.28245 8.38627 3.37568L8.10658 4.07319C6.58379 3.9627 5.34069 3.52071 4.79511 2.75413C4.24953 3.52071 3.00644 3.9627 1.47674 4.07319L1.21086 3.37568ZM12.5399 1.97029C12.533 3.13742 13.3341 4.23203 14.6463 4.67057L14.1456 5.40952C13.1787 5.06076 12.4639 4.35634 12.0876 3.46891C11.7077 4.44612 10.9619 5.20579 9.94322 5.59599L9.44253 4.84322C10.8168 4.37361 11.6076 3.22029 11.611 1.92195V1.02761H12.5399V1.97029ZM10.8168 6.95648V6.22099H16.7492V9.32872H15.8237V6.95648H10.8168ZM13.9798 3.11325V2.34668H15.8237V0.57872H16.7492V5.76518H15.8237V3.11325H13.9798ZM20.7163 3.26173C20.7163 4.64295 21.3517 6.04488 22.5602 6.69405L22.0388 7.38121C21.1928 6.92886 20.6058 6.09322 20.2881 5.1022C19.9739 6.16228 19.3869 7.07734 18.5409 7.58148L17.9953 6.88397C19.2108 6.17264 19.8358 4.67748 19.8427 3.26173V2.90952H18.2647V2.15331H19.8427V0.892946H20.7163V2.15331H22.2702V2.90952H20.7163V3.26173ZM21.6935 4.7569V3.98687H22.9539V0.765184H23.8275V8.88673H22.9539V4.7569H21.6935ZM24.7218 9.32872V0.57872H25.6024V9.32872H24.7218ZM33.7822 1.42817V2.49516C33.7822 3.77623 33.7822 4.97444 33.4024 6.78728L32.477 6.70441C32.6635 5.90331 32.7601 5.20234 32.8119 4.55317L27.5633 4.82596L27.439 4.06974L32.8534 3.85911C32.8741 3.38949 32.8741 2.94405 32.8775 2.49516V2.19129H27.6842V1.42817H33.7822ZM26.7415 8.15814V7.39157H34.718V8.15814H26.7415ZM42.2004 0.57872V4.12499H43.6023V4.89502H42.2004V9.32872H41.2819V0.57872H42.2004ZM35.3357 2.70579V1.94958H37.4939V0.69267H38.4193V1.94958H40.5187V2.70579H35.3357ZM35.7846 5.3888C35.7812 4.19405 36.6997 3.35151 37.9635 3.35151C39.2135 3.35151 40.132 4.19405 40.1355 5.3888C40.132 6.58701 39.2135 7.41919 37.9635 7.42264C36.6997 7.41919 35.7812 6.58701 35.7846 5.3888ZM36.6721 5.3888C36.6651 6.14502 37.2142 6.65262 37.9635 6.64916C38.7024 6.65262 39.2446 6.14502 39.2515 5.3888C39.2446 4.63604 38.7024 4.11808 37.9635 4.11808C37.2142 4.11808 36.6651 4.63604 36.6721 5.3888ZM51.2988 0.57872V9.32872H50.3664V0.57872H51.2988ZM44.1095 6.98411C46.4369 5.87913 47.5695 4.3011 47.7525 2.26035H44.5342V1.5214H48.6986C48.6917 4.0801 47.604 6.30041 44.5999 7.73342L44.1095 6.98411ZM4.29857 14.2486V15.0138H7.14387V15.6133H0.737793V15.0138H3.56928V14.2486H4.29857ZM1.06376 14.1077C2.30962 14.0193 3.30409 13.5442 3.43116 12.942H1.33172V12.3646H6.55547V12.942H4.44221C4.56376 13.547 5.54719 14.0193 6.81238 14.1077L6.56928 14.6657C5.33448 14.558 4.30962 14.1077 3.93945 13.4088C3.56652 14.1077 2.54166 14.558 1.30685 14.6657L1.06376 14.1077ZM1.33724 17.0442V16.4751H3.56652V15.8619H4.30409V16.4751H6.5389V17.0442H1.33724ZM1.80685 18.2679C1.80685 17.663 2.56652 17.3453 3.9284 17.3425C5.28475 17.3453 6.06376 17.663 6.06376 18.2679C6.06376 18.8784 5.28475 19.1961 3.9284 19.1961C2.56652 19.1961 1.80685 18.8784 1.80685 18.2679ZM2.56652 18.2679C2.561 18.547 3.05271 18.6961 3.9284 18.6906C4.8179 18.6961 5.2958 18.547 5.30133 18.2679C5.2958 17.9862 4.8179 17.8536 3.9284 17.8508C3.05271 17.8536 2.561 17.9862 2.56652 18.2679ZM14.0441 15.8177V16.4116H7.66291V15.8177H14.0441ZM8.34523 13.7983C8.34523 12.9199 9.32589 12.3923 10.848 12.3978C12.3646 12.3923 13.3452 12.9199 13.3452 13.7983C13.3452 14.6823 12.3646 15.2155 10.848 15.2155C9.32589 15.2155 8.34523 14.6823 8.34523 13.7983ZM8.46677 19.0193V16.9807H9.21263V18.4116H13.3259V19.0193H8.46677ZM9.11594 13.7983C9.11042 14.3149 9.77617 14.6105 10.848 14.6105C11.9198 14.6105 12.5856 14.3149 12.5856 13.7983C12.5856 13.2956 11.9198 12.9917 10.848 12.9917C9.77617 12.9917 9.11042 13.2956 9.11594 13.7983ZM17.8145 16.5249C19.2593 16.5249 20.1405 17.0055 20.1405 17.837C20.1405 18.674 19.2593 19.1574 17.8145 19.163C16.3587 19.1574 15.4665 18.674 15.4665 17.837C15.4665 17.0055 16.3587 16.5249 17.8145 16.5249ZM14.8449 15.8481V12.5994H15.577V13.6105H17.4112V12.5994H18.146V15.8481H14.8449ZM15.577 15.2569H17.4112V14.1906H15.577V15.2569ZM16.2096 17.837C16.204 18.3039 16.8035 18.5718 17.8145 18.5718C18.8228 18.5718 19.414 18.3039 19.414 17.837C19.414 17.3702 18.8228 17.1105 17.8145 17.105C16.8035 17.1105 16.204 17.3702 16.2096 17.837ZM19.3339 16.3453V12.163H20.077V13.8784H21.0908V14.5055H20.077V16.3453H19.3339ZM22.5656 12.5249V13.5442H24.3198V12.5249H25.0546V13.8425H26.585V12.163H27.3253V15.9862H26.585V14.4613H25.0546V15.7486H21.8225V12.5249H22.5656ZM22.5656 15.1492H24.3198V14.1243H22.5656V15.1492ZM22.7617 19.0663V16.3149H23.4993V17.0994H26.585V16.3149H27.3198V19.0663H22.7617ZM23.4993 18.4613H26.585V17.6795H23.4993V18.4613Z" fill="white"/>
</svg>
