<svg width="119" height="44" viewBox="0 0 119 44" fill="none" xmlns="http://www.w3.org/2000/svg">
<g clip-path="url(#clip0_5816_3075)">
<path d="M38.2607 43.8V36.6H3.11074V28.05H48.1107V43.8H38.2607ZM28.4607 1H35.6107V25.05H18.9607V1H26.0607V5.45H28.4607V1ZM7.66074 6.4H10.0607V2.5H17.1607V25.05H0.510742V2.5H7.66074V6.4ZM48.1107 0.5V26.3H38.2607V0.5H48.1107ZM26.0607 17.7H28.4607V12.75H26.0607V17.7ZM10.0607 17.7V13.7H7.66074V17.7H10.0607Z" fill="white"/>
</g>
<rect width="10.2911" height="17.9997" rx="1" transform="matrix(0.802539 0.5966 -0.586796 0.809735 107.736 20.2275)" fill="white"/>
<ellipse cx="108.125" cy="22.8013" rx="0.766913" ry="0.776306" transform="rotate(-10 108.125 22.8013)" fill="#2E3D4A"/>
<ellipse cx="109.312" cy="23.6431" rx="0.255638" ry="0.258769" transform="rotate(-10 109.312 23.6431)" fill="#2E3D4A"/>
<path d="M84.0283 21H85.1533V21.6172H84.0283V25.1641H83.2939V18.1641H84.0283V21ZM91.5049 25.1641H90.8018V18.1641H91.5049V25.1641ZM66.5518 24.4141H70.5361V25.0156H65.8018V22.7266H66.5518V24.4141ZM73.6846 24.4141H77.6768V25.0156H72.9346V22.9375H73.6846V24.4141ZM90.0283 24.8203H89.3252V21.5703H87.958C87.5205 22.4193 86.8304 23.1198 85.8877 23.6719L85.4658 23.1406C86.195 22.7083 86.7484 22.2005 87.126 21.6172C87.5062 21.0339 87.7275 20.375 87.79 19.6406H85.7939V19.0312H88.5283C88.5231 19.75 88.4189 20.3984 88.2158 20.9766H89.3252V18.3438H90.0283V24.8203ZM80.6377 20.3828C80.9684 20.3828 81.2653 20.4518 81.5283 20.5898C81.7913 20.7279 81.9984 20.9206 82.1494 21.168C82.3005 21.4154 82.3773 21.6953 82.3799 22.0078C82.3773 22.3229 82.3005 22.6042 82.1494 22.8516C81.9984 23.099 81.7913 23.2917 81.5283 23.4297C81.2653 23.5677 80.9684 23.638 80.6377 23.6406C80.3044 23.638 80.0049 23.5677 79.7393 23.4297C79.4762 23.2917 79.2692 23.099 79.1182 22.8516C78.9697 22.6042 78.8955 22.3229 78.8955 22.0078C78.8955 21.6953 78.9697 21.4154 79.1182 21.168C79.2692 20.9206 79.4762 20.7279 79.7393 20.5898C80.0049 20.4518 80.3044 20.3828 80.6377 20.3828ZM77.4971 23.3594H76.7549V21.4297H75.6611V20.8047H76.7549V20.0703H75.6611V19.4609H76.7549V18.1641H77.4971V23.3594ZM70.2471 20.2344H71.2627V20.8516H70.2471V23.25H69.4971V18.1641H70.2471V20.2344ZM80.6377 20.9922C80.4424 20.9922 80.2653 21.0352 80.1064 21.1211C79.9476 21.207 79.8239 21.3268 79.7354 21.4805C79.6468 21.6341 79.6038 21.8099 79.6064 22.0078C79.6038 22.2083 79.6468 22.3854 79.7354 22.5391C79.8239 22.6927 79.9463 22.8112 80.1025 22.8945C80.2614 22.9779 80.4398 23.0182 80.6377 23.0156C80.833 23.0182 81.0088 22.9779 81.165 22.8945C81.3239 22.8112 81.4476 22.6927 81.5361 22.5391C81.6247 22.3854 81.6689 22.2083 81.6689 22.0078C81.6689 21.8099 81.6247 21.6341 81.5361 21.4805C81.4476 21.3268 81.3239 21.207 81.165 21.1211C81.0088 21.0352 80.833 20.9922 80.6377 20.9922ZM68.3486 18.6953C68.3486 19.2995 68.2171 19.8503 67.9541 20.3477C67.6911 20.8451 67.3122 21.2747 66.8174 21.6367C66.3252 21.9961 65.7367 22.2786 65.0518 22.4844L64.7393 21.8906C65.2835 21.7266 65.7562 21.5169 66.1572 21.2617C66.5609 21.0065 66.8799 20.7135 67.1143 20.3828C67.3512 20.0521 67.4932 19.6953 67.54 19.3125H65.0361V18.6953H68.3486ZM75.583 19.3125H74.9111V21.6562C75.2809 21.6276 75.5674 21.6016 75.7705 21.5781L75.8018 22.125C75.208 22.2188 74.5791 22.2812 73.915 22.3125C73.2536 22.3438 72.5361 22.362 71.7627 22.3672L71.6689 21.7422L72.5205 21.7383V19.3125H71.8643V18.7109H75.583V19.3125ZM73.2393 21.7266C73.6663 21.7161 73.9867 21.7057 74.2002 21.6953V19.3125H73.2393V21.7266ZM81.0049 19.2578H82.6846V19.8672H78.5361V19.2578H80.2627V18.2578H81.0049V19.2578ZM89.6064 15.3301H88.7178V6.58008H89.6064V15.3301ZM106.394 13.8457H101.257V14.5684H106.667V15.2227H100.329V13.2305H105.476V12.5859H100.319V11.9219H106.394V13.8457ZM67.2822 14.3926H72.3311V15.1445H66.3447V12.3027H67.2822V14.3926ZM75.5439 14.3926H80.9443V15.1445H74.626V12.5762H75.5439V14.3926ZM87.8291 14.8906H86.9502V10.7598H85.6904V9.98828H86.9502V6.76562H87.8291V14.8906ZM98.7178 14.1582H90.7393V13.3965H98.7178V14.1582ZM84.7139 8.15234H86.2666V8.91406H84.7139V9.26562C84.7139 9.73112 84.7839 10.1868 84.9238 10.6328C85.0671 11.0788 85.277 11.4824 85.5537 11.8438C85.8337 12.2018 86.1689 12.485 86.5596 12.6934L86.042 13.377C85.6318 13.1589 85.277 12.8529 84.9775 12.459C84.6813 12.0618 84.4518 11.6077 84.2891 11.0967C84.1263 11.6468 83.8968 12.1383 83.6006 12.5713C83.3076 13.001 82.9561 13.3379 82.5459 13.582L81.999 12.8789C82.3896 12.651 82.7233 12.3467 83 11.9658C83.2767 11.5817 83.485 11.1569 83.625 10.6914C83.7682 10.2227 83.8415 9.7474 83.8447 9.26562V8.91406H82.2627V8.15234H83.8447V6.89258H84.7139V8.15234ZM80.7295 13.2207H79.8018V12.3809H78.0439V11.7266H79.8018V6.58984H80.7295V13.2207ZM72.0674 12.9473H71.1396V6.58984H72.0674V12.9473ZM79.1377 10.9844C78.4183 11.1016 77.6501 11.1862 76.833 11.2383V12.9473H75.9053V11.292C75.277 11.3148 74.6357 11.3262 73.9814 11.3262H73.5322L73.415 10.584C74.5544 10.5775 75.5765 10.5579 76.4814 10.5254C77.3896 10.4928 78.2555 10.4245 79.0791 10.3203L79.1377 10.9844ZM97.7803 8.49414C97.7803 9.05729 97.7738 9.53092 97.7607 9.91504C97.7477 10.2992 97.7135 10.7337 97.6582 11.2188C97.6029 11.7005 97.5166 12.2246 97.3994 12.791L96.4814 12.7031C96.6507 11.9772 96.7614 11.2594 96.8135 10.5498L91.5596 10.8281L91.4424 10.0664L96.8574 9.86133C96.8639 9.67578 96.8688 9.49349 96.8721 9.31445L96.8818 8.76758V8.19141H91.6865V7.42969H97.7803V8.49414ZM67.3213 7.17578C67.7575 7.17578 68.1514 7.26855 68.5029 7.4541C68.8577 7.63965 69.1361 7.89681 69.3379 8.22559C69.543 8.55436 69.6455 8.92708 69.6455 9.34375C69.6455 9.76693 69.543 10.1445 69.3379 10.4766C69.1361 10.8053 68.8577 11.0625 68.5029 11.248C68.1514 11.4303 67.7575 11.5215 67.3213 11.5215C66.8851 11.5215 66.4896 11.4303 66.1348 11.248C65.7799 11.0625 65.5 10.8037 65.2949 10.4717C65.0898 10.1396 64.9873 9.76367 64.9873 9.34375C64.9873 8.92708 65.0898 8.55436 65.2949 8.22559C65.5 7.89681 65.7799 7.63965 66.1348 7.4541C66.4896 7.26855 66.8851 7.17578 67.3213 7.17578ZM107.38 11.3066H99.3721V10.5938H107.38V11.3066ZM67.3213 7.98633C67.0511 7.98633 66.807 8.04492 66.5889 8.16211C66.374 8.27604 66.2048 8.43555 66.0811 8.64062C65.9574 8.8457 65.8955 9.08008 65.8955 9.34375C65.8955 9.61393 65.9557 9.85319 66.0762 10.0615C66.1999 10.2666 66.3691 10.4261 66.584 10.54C66.8021 10.654 67.0479 10.7109 67.3213 10.7109C67.5882 10.7109 67.8291 10.654 68.0439 10.54C68.2588 10.4261 68.4281 10.265 68.5518 10.0566C68.6755 9.84831 68.7373 9.61068 68.7373 9.34375C68.7373 9.08333 68.6755 8.85059 68.5518 8.64551C68.4281 8.43717 68.2572 8.27604 68.0391 8.16211C67.8242 8.04492 67.585 7.98633 67.3213 7.98633ZM106.374 8.69922H101.315V9.36328H106.521V10.0176H100.397V8.08398H105.446V7.45898H100.378V6.80469H106.374V8.69922ZM76.2764 6.92188C76.6995 6.92188 77.0755 6.98698 77.4043 7.11719C77.7331 7.24414 77.9886 7.4248 78.1709 7.65918C78.3532 7.8903 78.4443 8.15885 78.4443 8.46484C78.4443 8.77083 78.3532 9.03939 78.1709 9.27051C77.9886 9.49837 77.7331 9.67578 77.4043 9.80273C77.0755 9.92643 76.6995 9.98828 76.2764 9.98828C75.8467 9.98828 75.4674 9.92643 75.1387 9.80273C74.8099 9.67578 74.5544 9.49837 74.3721 9.27051C74.1898 9.03939 74.0986 8.77083 74.0986 8.46484C74.0986 8.15885 74.1898 7.8903 74.3721 7.65918C74.5544 7.4248 74.8099 7.24414 75.1387 7.11719C75.4674 6.98698 75.8467 6.92188 76.2764 6.92188ZM76.2764 7.61523C76.0192 7.61198 75.7913 7.64453 75.5928 7.71289C75.3942 7.78125 75.2412 7.88053 75.1338 8.01074C75.0264 8.14095 74.9743 8.29232 74.9775 8.46484C74.9743 8.63411 75.0264 8.78223 75.1338 8.90918C75.2412 9.03613 75.3926 9.13379 75.5879 9.20215C75.7865 9.27051 76.016 9.30469 76.2764 9.30469C76.527 9.30469 76.7484 9.27051 76.9404 9.20215C77.1357 9.13379 77.2871 9.03613 77.3945 8.90918C77.5052 8.78223 77.5622 8.63411 77.5654 8.46484C77.5622 8.29232 77.5052 8.14095 77.3945 8.01074C77.2871 7.88053 77.1357 7.78125 76.9404 7.71289C76.7484 7.64453 76.527 7.61198 76.2764 7.61523Z" fill="white"/>
<defs>
<clipPath id="clip0_5816_3075">
<rect width="49" height="44" fill="white"/>
</clipPath>
</defs>
</svg>
