<svg width="119" height="44" viewBox="0 0 119 44" fill="none" xmlns="http://www.w3.org/2000/svg">
<g clip-path="url(#clip0_10812_78)">
<path d="M38.2607 43.8V36.6H3.11074V28.05H48.1107V43.8H38.2607ZM28.4607 1H35.6107V25.05H18.9607V1H26.0607V5.45H28.4607V1ZM7.66074 6.4H10.0607V2.5H17.1607V25.05H0.510742V2.5H7.66074V6.4ZM48.1107 0.5V26.3H38.2607V0.5H48.1107ZM26.0607 17.7H28.4607V12.75H26.0607V17.7ZM10.0607 17.7V13.7H7.66074V17.7H10.0607Z" fill="white"/>
</g>
<rect width="10.2911" height="17.9997" rx="1" transform="matrix(0.802539 0.5966 -0.586796 0.809735 107.736 20.2275)" fill="white"/>
<ellipse cx="108.125" cy="22.8013" rx="0.766913" ry="0.776306" transform="rotate(-10 108.125 22.8013)" fill="#2E3D4A"/>
<ellipse cx="109.312" cy="23.6431" rx="0.255638" ry="0.258769" transform="rotate(-10 109.312 23.6431)" fill="#2E3D4A"/>
<path d="M72.78 11.1128H69.2544V11.8448H71.7786V13.82H66.6888V14.5417H72.0307V15.2461H65.7807V13.1777H70.867V12.5216H65.7634V11.8448H68.3359V11.1128H64.8242V10.4187H72.78V11.1128ZM65.2109 9.37593C65.768 9.346 66.2652 9.27118 66.7026 9.15148C67.14 9.03177 67.4922 8.87523 67.7593 8.68186C68.0286 8.48849 68.1943 8.2698 68.2565 8.02579H65.6149V7.31791H68.3394V6.54443H69.251V7.31791H71.9892V8.02579H69.3304C69.3902 8.2698 69.5548 8.48849 69.8242 8.68186C70.0935 8.87523 70.448 9.03177 70.8877 9.15148C71.3274 9.27118 71.8269 9.346 72.3863 9.37593L72.1066 10.0734C71.324 10.0159 70.6426 9.87546 70.0624 9.65217C69.4846 9.42887 69.0622 9.12961 68.7952 8.75438C68.5281 9.12961 68.1046 9.42887 67.5245 9.65217C66.9443 9.87546 66.2618 10.0159 65.4768 10.0734L65.2109 9.37593ZM76.54 7.97054C76.5377 8.35958 76.6205 8.73366 76.7886 9.09278C76.9589 9.44959 77.2029 9.76612 77.5206 10.0424C77.8406 10.3186 78.2158 10.5281 78.6463 10.6708L78.1456 11.4098C77.6691 11.2371 77.2547 10.9827 76.9025 10.6466C76.5503 10.3105 76.2787 9.91805 76.0876 9.46916C75.8965 9.96179 75.618 10.3911 75.252 10.7571C74.886 11.1232 74.4497 11.4029 73.9433 11.5962L73.4426 10.8435C73.8938 10.6892 74.2817 10.4659 74.6063 10.1736C74.9331 9.88122 75.1818 9.54167 75.3521 9.15493C75.5225 8.76589 75.6088 8.35498 75.6111 7.9222V7.02786H76.54V7.97054ZM74.8169 12.2212H80.7492V15.329H79.8238V12.9567H74.8169V12.2212ZM77.9799 8.34692H79.8238V6.57896H80.7492V11.7654H79.8238V9.11349H77.9799V8.34692ZM84.7164 9.26198C84.7164 9.72929 84.7866 10.1862 84.927 10.6328C85.0697 11.0771 85.2792 11.48 85.5555 11.8414C85.834 12.2005 86.169 12.4848 86.5603 12.6943L86.0389 13.3815C85.6268 13.1605 85.2723 12.8531 84.9754 12.4595C84.6807 12.0658 84.4516 11.6135 84.2882 11.1024C84.1248 11.6503 83.8957 12.1395 83.601 12.57C83.3064 13.0005 82.953 13.3377 82.541 13.5817L81.9954 12.8842C82.389 12.654 82.724 12.3467 83.0002 11.9623C83.2765 11.5778 83.4848 11.1519 83.6252 10.6846C83.7679 10.2173 83.8405 9.7431 83.8428 9.26198V8.90977H82.2647V8.15355H83.8428V6.89319H84.7164V8.15355H86.2702V8.90977H84.7164V9.26198ZM85.6936 9.98711H86.9539V6.76543H87.8276V14.887H86.9539V10.7571H85.6936V9.98711ZM88.7219 6.57896H89.6024V15.329H88.7219V6.57896ZM97.7823 8.4954C97.7823 9.0594 97.7754 9.53361 97.7616 9.91805C97.7501 10.3025 97.7167 10.7353 97.6614 11.2164C97.6062 11.6975 97.5199 12.2212 97.4025 12.7875L96.4771 12.7047C96.6428 11.9933 96.7544 11.2762 96.812 10.5534L91.5634 10.8262L91.4391 10.07L96.8534 9.85935C96.8649 9.59001 96.873 9.19982 96.8776 8.68877V8.4954V8.19153H91.6842V7.42841H97.7823V8.4954ZM90.7416 13.3918H98.7181V14.1584H90.7416V13.3918ZM106.2 10.1252H107.602V10.8953H106.2V15.329H105.282V6.57896H106.2V10.1252ZM99.3358 7.94982H101.494V6.69291H102.419V7.94982H104.519V8.70604H99.3358V7.94982ZM99.7847 11.389C99.7847 10.9954 99.8779 10.6443 100.064 10.3359C100.251 10.0274 100.51 9.78684 100.841 9.61419C101.173 9.43923 101.547 9.35175 101.964 9.35175C102.376 9.35175 102.746 9.43923 103.075 9.61419C103.407 9.78684 103.666 10.0285 103.852 10.3393C104.041 10.6478 104.136 10.9977 104.136 11.389C104.136 11.7827 104.041 12.1338 103.852 12.4422C103.666 12.7507 103.407 12.9913 103.075 13.1639C102.746 13.3366 102.376 13.4229 101.964 13.4229C101.547 13.4229 101.173 13.3366 100.841 13.1639C100.51 12.9913 100.251 12.7507 100.064 12.4422C99.8779 12.1338 99.7847 11.7827 99.7847 11.389ZM100.672 11.389C100.67 11.6377 100.724 11.8575 100.834 12.0486C100.945 12.2396 101.098 12.3881 101.294 12.494C101.492 12.5976 101.715 12.6494 101.964 12.6494C102.208 12.6494 102.426 12.5976 102.62 12.494C102.815 12.3881 102.968 12.2396 103.079 12.0486C103.192 11.8575 103.249 11.6377 103.252 11.389C103.249 11.1427 103.192 10.9229 103.079 10.7295C102.968 10.5361 102.815 10.3865 102.62 10.2806C102.426 10.1724 102.208 10.1183 101.964 10.1183C101.715 10.1183 101.492 10.1724 101.294 10.2806C101.098 10.3865 100.945 10.5361 100.834 10.7295C100.724 10.9229 100.67 11.1427 100.672 11.389ZM115.299 15.329H114.366V6.57896H115.299V15.329ZM108.11 12.9844C109.256 12.4388 110.126 11.7746 110.72 10.9919C111.316 10.207 111.66 9.29651 111.753 8.26059H108.534V7.52164H112.699C112.694 8.87754 112.368 10.0803 111.721 11.1301C111.077 12.1798 110.036 13.0477 108.6 13.7337L108.11 12.9844ZM68.2986 21.014H71.1439V21.6135H64.7379V21.014H67.5693V20.2489H68.2986V21.014ZM65.0638 20.108C65.4763 20.0785 65.8548 20.0094 66.1992 19.9008C66.5436 19.7921 66.8244 19.6549 67.0417 19.4892C67.259 19.3216 67.3889 19.1393 67.4312 18.9422H65.3318V18.3649H70.5555V18.9422H68.4423C68.4828 19.1411 68.6108 19.3244 68.8263 19.4919C69.0417 19.6577 69.3216 19.7949 69.666 19.9035C70.0123 20.0104 70.3944 20.0785 70.8124 20.108L70.5693 20.666C70.155 20.6291 69.771 20.5564 69.4174 20.4477C69.0638 20.3373 68.759 20.1936 68.503 20.0168C68.2489 19.84 68.0611 19.6374 67.9395 19.4091C67.818 19.6374 67.6292 19.84 67.3732 20.0168C67.1172 20.1936 66.8124 20.3373 66.4588 20.4477C66.1053 20.5564 65.7213 20.6291 65.3069 20.666L65.0638 20.108ZM65.3373 22.4754H67.5666V21.8621H68.3042V22.4754H70.539V23.0444H65.3373V22.4754ZM65.8069 24.2682C65.8069 23.968 65.9892 23.7396 66.3539 23.5831C66.7185 23.4247 67.2434 23.3446 67.9285 23.3428C68.3815 23.3446 68.7673 23.3805 69.0859 23.4505C69.4045 23.5205 69.6467 23.6245 69.8124 23.7627C69.98 23.8989 70.0638 24.0675 70.0638 24.2682C70.0638 24.5702 69.8787 24.8004 69.5086 24.9588C69.1384 25.1172 68.6117 25.1964 67.9285 25.1964C67.2434 25.1964 66.7185 25.1172 66.3539 24.9588C65.9892 24.8023 65.8069 24.5721 65.8069 24.2682ZM66.5666 24.2682C66.5647 24.4082 66.6817 24.514 66.9174 24.5859C67.1531 24.6595 67.4902 24.6945 67.9285 24.6908C68.3723 24.6927 68.7112 24.6577 68.945 24.5859C69.1789 24.514 69.2977 24.4082 69.3014 24.2682C69.2959 23.9938 68.8382 23.8547 67.9285 23.8511C67.4828 23.8529 67.1439 23.8888 66.9119 23.9588C66.6798 24.0269 66.5647 24.1301 66.5666 24.2682ZM78.0442 22.4118H71.663V21.8179H78.0442V22.4118ZM72.3453 19.7986C72.3453 19.5094 72.4475 19.259 72.6519 19.0472C72.8563 18.8354 73.1473 18.6743 73.5248 18.5638C73.9024 18.4514 74.3434 18.3962 74.848 18.398C75.3508 18.3962 75.79 18.4514 76.1657 18.5638C76.5433 18.6743 76.8342 18.8354 77.0387 19.0472C77.2431 19.259 77.3453 19.5094 77.3453 19.7986C77.3453 20.0896 77.2431 20.3419 77.0387 20.5555C76.8342 20.7691 76.5433 20.933 76.1657 21.0472C75.79 21.1595 75.3508 21.2157 74.848 21.2157C74.3434 21.2157 73.9024 21.1595 73.5248 21.0472C73.1473 20.933 72.8563 20.7691 72.6519 20.5555C72.4475 20.3419 72.3453 20.0896 72.3453 19.7986ZM72.4668 22.9809H73.2127V24.4118H77.3259V25.0196H72.4668V22.9809ZM73.116 19.7986C73.1142 19.968 73.1823 20.1144 73.3204 20.2378C73.4604 20.3594 73.6602 20.4524 73.9199 20.5168C74.1814 20.5794 74.4908 20.6107 74.848 20.6107C75.2053 20.6107 75.5138 20.5794 75.7735 20.5168C76.035 20.4524 76.2357 20.3594 76.3757 20.2378C76.5156 20.1144 76.5856 19.968 76.5856 19.7986C76.5856 19.6328 76.5156 19.4892 76.3757 19.3676C76.2357 19.2461 76.035 19.1531 75.7735 19.0886C75.512 19.0242 75.2035 18.9919 74.848 18.9919C74.4926 18.9919 74.1841 19.0242 73.9226 19.0886C73.663 19.1531 73.4632 19.2461 73.3232 19.3676C73.1832 19.4892 73.1142 19.6328 73.116 19.7986ZM81.8146 22.5251C82.2953 22.5251 82.7096 22.5767 83.0577 22.6798C83.4076 22.7829 83.6756 22.933 83.8616 23.1301C84.0476 23.3271 84.1406 23.5629 84.1406 23.8373C84.1406 24.1135 84.0476 24.3501 83.8616 24.5472C83.6756 24.7461 83.4076 24.898 83.0577 25.003C82.7096 25.108 82.2953 25.1614 81.8146 25.1632C81.3303 25.1614 80.9122 25.108 80.5605 25.003C80.2087 24.898 79.938 24.7461 79.7483 24.5472C79.5605 24.3501 79.4665 24.1135 79.4665 23.8373C79.4665 23.5629 79.5605 23.3271 79.7483 23.1301C79.938 22.933 80.2087 22.7829 80.5605 22.6798C80.9122 22.5767 81.3303 22.5251 81.8146 22.5251ZM78.845 18.5997H79.577V19.6107H81.4113V18.5997H82.1461V21.8483H78.845V18.5997ZM81.4113 21.2571V20.1908H79.577V21.2571H81.4113ZM80.2096 23.8373C80.2078 23.9919 80.2704 24.1245 80.3975 24.235C80.5245 24.3437 80.7087 24.4275 80.95 24.4864C81.1912 24.5435 81.4794 24.5721 81.8146 24.5721C82.1498 24.5721 82.4371 24.5435 82.6765 24.4864C82.9159 24.4275 83.0982 24.3437 83.2234 24.235C83.3505 24.1245 83.414 23.9919 83.414 23.8373C83.414 23.6826 83.3505 23.5509 83.2234 23.4422C83.0982 23.3336 82.9159 23.2507 82.6765 23.1936C82.4371 23.1365 82.1498 23.107 81.8146 23.1052C81.4776 23.107 81.1884 23.1365 80.9472 23.1936C80.7078 23.2507 80.5245 23.3336 80.3975 23.4422C80.2704 23.5509 80.2078 23.6826 80.2096 23.8373ZM83.3339 18.1632H84.077V19.8787H85.0908V20.5058H84.077V22.3455H83.3339V18.1632ZM86.5657 19.5444H88.3198V18.5251H89.0546V19.8428H90.585V18.1632H91.3253V21.9864H90.585V20.4616H89.0546V21.7489H85.8226V18.5251H86.5657V19.5444ZM88.3198 21.1494V20.1245H86.5657V21.1494H88.3198ZM86.7618 22.3152H87.4994V23.0997H90.585V22.3152H91.3198V25.0665H86.7618V22.3152ZM90.585 24.4616V23.6798H87.4994V24.4616H90.585Z" fill="white"/>
<defs>
<clipPath id="clip0_10812_78">
<rect width="49" height="44" fill="white"/>
</clipPath>
</defs>
</svg>
