<svg width="1577" height="469" viewBox="0 0 1577 469" fill="none" xmlns="http://www.w3.org/2000/svg">
<mask id="path-1-inside-1_9728_203" fill="white">
<path d="M1377 0L977 0V200L1377 200V0Z"/>
</mask>
<path d="M1377 0L977 0V200L1377 200V0Z" fill="white"/>
<path d="M977 0L976 0V-1L977 -1V0ZM1377 0V1L977 1V0V-1L1377 -1V0ZM977 0L978 0V200H977H976V0L977 0Z" fill="#63BFFF" mask="url(#path-1-inside-1_9728_203)"/>
<mask id="path-3-inside-2_9728_203" fill="white">
<path d="M0 200H1577V269H0V200Z"/>
</mask>
<path d="M0 200H1577V269H0V200Z" fill="#FBFBFB"/>
<path d="M0 200V199H-1V200H0ZM1577 200H1578V199H1577V200ZM1577 269V270H1578V269H1577ZM0 269H-1V270H0V269ZM0 200V201H1577V200V199H0V200ZM1577 200H1576V269H1577H1578V200H1577ZM1577 269V268H0V269V270H1577V269ZM0 269H1V200H0H-1V269H0Z" fill="#63BFFF" mask="url(#path-3-inside-2_9728_203)"/>
<rect x="977.5" y="269.5" width="599" height="199" stroke="#63BFFF"/>
<mask id="path-6-inside-3_9728_203" fill="white">
<path d="M977 269H1177V469H977V269Z"/>
</mask>
<path d="M977 269H1177V469H977V269Z" fill="white"/>
<path d="M1177 469V470H1178V469H1177ZM977 469H976V470H977V469ZM1177 269H1176V469H1177H1178V269H1177ZM1177 469V468H977V469V470H1177V469ZM977 469H978V269H977H976V469H977Z" fill="#63BFFF" mask="url(#path-6-inside-3_9728_203)"/>
<mask id="path-8-inside-4_9728_203" fill="white">
<path d="M1177 269H1377V469H1177V269Z"/>
</mask>
<path d="M1177 269H1377V469H1177V269Z" fill="white"/>
<path d="M1377 469V470H1378V469H1377ZM1377 269H1376V469H1377H1378V269H1377ZM1377 469V468H1177V469V470H1377V469Z" fill="#63BFFF" mask="url(#path-8-inside-4_9728_203)"/>
<mask id="path-10-inside-5_9728_203" fill="white">
<path d="M1377 269H1577V469H1377V269Z"/>
</mask>
<path d="M1377 269H1577V469H1377V269Z" fill="white"/>
<path d="M1577 469V470H1578V469H1577ZM1577 269H1576V469H1577H1578V269H1577ZM1577 469V468H1377V469V470H1577V469Z" fill="#63BFFF" mask="url(#path-10-inside-5_9728_203)"/>
<mask id="path-12-inside-6_9728_203" fill="white">
<path d="M1577 0L1377 0V200H1577V0Z"/>
</mask>
<path d="M1577 0L1377 0V200H1577V0Z" fill="white"/>
<path d="M1577 0V-1H1578V0L1577 0ZM1377 0L1376 0V-1H1377V0ZM1577 0V1L1377 1V0V-1L1577 -1V0ZM1377 0L1378 0V200H1377H1376V0L1377 0ZM1577 200H1576V0L1577 0L1578 0V200H1577Z" fill="#63BFFF" mask="url(#path-12-inside-6_9728_203)"/>
<rect x="0.5" y="269.5" width="799" height="199" stroke="#63BFFF"/>
<mask id="path-15-inside-7_9728_203" fill="white">
<path d="M0 269H200V469H0V269Z"/>
</mask>
<path d="M0 269H200V469H0V269Z" fill="white"/>
<path d="M200 469V470H201V469H200ZM0 469H-1V470H0V469ZM200 269H199V469H200H201V269H200ZM200 469V468H0V469V470H200V469ZM0 469H1V269H0H-1V469H0Z" fill="#63BFFF" mask="url(#path-15-inside-7_9728_203)"/>
<mask id="path-17-inside-8_9728_203" fill="white">
<path d="M200 269H400V469H200V269Z"/>
</mask>
<path d="M200 269H400V469H200V269Z" fill="white"/>
<path d="M400 469V470H401V469H400ZM400 269H399V469H400H401V269H400ZM400 469V468H200V469V470H400V469Z" fill="#63BFFF" mask="url(#path-17-inside-8_9728_203)"/>
<mask id="path-19-inside-9_9728_203" fill="white">
<path d="M400 269H600V469H400V269Z"/>
</mask>
<path d="M400 269H600V469H400V269Z" fill="white"/>
<path d="M600 469V470H601V469H600ZM600 269H599V469H600H601V269H600ZM600 469V468H400V469V470H600V469Z" fill="#63BFFF" mask="url(#path-19-inside-9_9728_203)"/>
<mask id="path-21-inside-10_9728_203" fill="white">
<path d="M600 269H800V469H600V269Z"/>
</mask>
<path d="M600 269H800V469H600V269Z" fill="white"/>
<path d="M800 469V470H801V469H800ZM800 269H799V469H800H801V269H800ZM800 469V468H600V469V470H800V469Z" fill="#63BFFF" mask="url(#path-21-inside-10_9728_203)"/>
<mask id="path-23-inside-11_9728_203" fill="white">
<path d="M0 0H200V200H0V0Z"/>
</mask>
<path d="M0 0H200V200H0V0Z" fill="white"/>
<path d="M0 0V-1H-1V0H0ZM200 0H201V-1H200V0ZM0 0V1H200V0V-1H0V0ZM200 0H199V200H200H201V0H200ZM0 200H1V0H0H-1V200H0Z" fill="#63BFFF" mask="url(#path-23-inside-11_9728_203)"/>
<mask id="path-25-inside-12_9728_203" fill="white">
<path d="M400 0H600V200H400V0Z"/>
</mask>
<path d="M400 0H600V200H400V0Z" fill="white"/>
<path d="M400 0V-1H399V0H400ZM600 0H601V-1H600V0ZM400 0V1H600V0V-1H400V0ZM600 0H599V200H600H601V0H600ZM400 200H401V0H400H399V200H400Z" fill="#63BFFF" mask="url(#path-25-inside-12_9728_203)"/>
</svg>
