<svg width="1841" height="498" viewBox="0 0 1841 498" fill="none" xmlns="http://www.w3.org/2000/svg">
<mask id="path-1-inside-1_8298_3467" fill="white">
<path d="M0 92H1024V161H0V92Z"/>
</mask>
<path d="M0 92H1024V161H0V92Z" fill="#FBFBFB"/>
<path d="M0 92V91H-1V92H0ZM0 161H-1V162H0V161ZM0 93H1024V91H0V93ZM1024 160H0V162H1024V160ZM1 161V92H-1V161H1Z" fill="#63BFFF" mask="url(#path-1-inside-1_8298_3467)"/>
<mask id="path-3-inside-2_8298_3467" fill="white">
<path d="M943 197H1841V266H943V197Z"/>
</mask>
<path d="M943 197H1841V266H943V197Z" fill="#FBFBFB"/>
<path d="M1841 197H1842V196H1841V197ZM1841 266V267H1842V266H1841ZM943 198H1841V196H943V198ZM1840 197V266H1842V197H1840ZM1841 265H943V267H1841V265Z" fill="#63BFFF" mask="url(#path-3-inside-2_8298_3467)"/>
<mask id="path-5-inside-3_8298_3467" fill="white">
<path d="M0 0H235V92H0V0Z"/>
</mask>
<path d="M0 0H235V92H0V0Z" fill="white"/>
<path d="M0 0V-1H-1V0H0ZM235 0H236V-1H235V0ZM0 1H235V-1H0V1ZM234 0V92H236V0H234ZM1 92V0H-1V92H1Z" fill="#63BFFF" mask="url(#path-5-inside-3_8298_3467)"/>
<mask id="path-7-inside-4_8298_3467" fill="white">
<path d="M464 0H699V92H464V0Z"/>
</mask>
<path d="M464 0H699V92H464V0Z" fill="white"/>
<path d="M464 0V-1H463V0H464ZM699 0H700V-1H699V0ZM464 1H699V-1H464V1ZM698 0V92H700V0H698ZM465 92V0H463V92H465Z" fill="#63BFFF" mask="url(#path-7-inside-4_8298_3467)"/>
<mask id="path-9-inside-5_8298_3467" fill="white">
<path d="M352 370V161H464V370H352Z"/>
</mask>
<path d="M352 370V161H464V370H352Z" fill="#FBFBFB"/>
<path d="M464 369H352V371H464V369Z" fill="#63BFFF" mask="url(#path-9-inside-5_8298_3467)"/>
<mask id="path-11-inside-6_8298_3467" fill="white">
<path d="M464 399V161H690V399H464Z"/>
</mask>
<path d="M464 399V161H690V399H464Z" fill="white"/>
<path d="M464 399H463V400H464V399ZM690 399V400H691V399H690ZM465 399V161H463V399H465ZM689 161V399H691V161H689ZM690 398H464V400H690V398Z" fill="#63BFFF" mask="url(#path-11-inside-6_8298_3467)"/>
<mask id="path-13-inside-7_8298_3467" fill="white">
<path d="M690 370V161H817V370H690Z"/>
</mask>
<path d="M690 370V161H817V370H690Z" fill="#FBFBFB"/>
<path d="M817 369H690V371H817V369Z" fill="#63BFFF" mask="url(#path-13-inside-7_8298_3467)"/>
<mask id="path-15-inside-8_8298_3467" fill="white">
<path d="M817 370V161H943V370H817Z"/>
</mask>
<path d="M817 370V161H943V370H817Z" fill="#FBFBFB"/>
<path d="M817 370H816V371H817V370ZM943 370V371H944V370H943ZM818 370V161H816V370H818ZM942 161V370H944V161H942ZM943 369H817V371H943V369Z" fill="#63BFFF" mask="url(#path-15-inside-8_8298_3467)"/>
<mask id="path-17-inside-9_8298_3467" fill="white">
<path d="M1024 441V347H1142V441H1024Z"/>
</mask>
<path d="M1024 441V347H1142V441H1024Z" fill="#FBFBFB"/>
<path d="M1024 441H1023V442H1024V441ZM1024 347V346H1023V347H1024ZM1025 441V347H1023V441H1025ZM1024 348H1142V346H1024V348ZM1142 440H1024V442H1142V440Z" fill="#63BFFF" mask="url(#path-17-inside-9_8298_3467)"/>
<mask id="path-19-inside-10_8298_3467" fill="white">
<path d="M0 161H352V241H0V161Z"/>
</mask>
<path d="M0 161H352V241H0V161Z" fill="white"/>
<path d="M351 161V241H353V161H351ZM1 241V161H-1V241H1Z" fill="#63BFFF" mask="url(#path-19-inside-10_8298_3467)"/>
<mask id="path-21-inside-11_8298_3467" fill="white">
<path d="M0 241H352V370H0V241Z"/>
</mask>
<path d="M0 241H352V370H0V241Z" fill="white"/>
<path d="M352 370V371H353V370H352ZM0 370H-1V371H0V370ZM351 241V370H353V241H351ZM352 369H0V371H352V369ZM1 370V241H-1V370H1Z" fill="#63BFFF" mask="url(#path-21-inside-11_8298_3467)"/>
<mask id="path-23-inside-12_8298_3467" fill="white">
<path d="M0 349H235V410H0V349Z"/>
</mask>
<path d="M0 349H235V410H0V349Z" fill="white"/>
<path d="M235 410V411H236V410H235ZM0 410H-1V411H0V410ZM234 349V410H236V349H234ZM235 409H0V411H235V409ZM1 410V349H-1V410H1Z" fill="#63BFFF" mask="url(#path-23-inside-12_8298_3467)"/>
<mask id="path-25-inside-13_8298_3467" fill="white">
<path d="M234 349H260V370H234V349Z"/>
</mask>
<path d="M234 349H260V370H234V349Z" fill="white"/>
<path d="M260 369H234V371H260V369Z" fill="#63BFFF" mask="url(#path-25-inside-13_8298_3467)"/>
<rect x="185" y="269" width="100" height="100" fill="white"/>
<path d="M1073.95 387.688H1081.55V389.625H1076.3V392.375H1081.16V394.312H1076.3V397.062H1081.56V399H1073.95V387.688ZM1088.11 396.312H1088.22L1090.98 387.688H1093.58L1089.67 399H1086.66L1082.73 387.688H1085.36L1088.11 396.312Z" fill="black"/>
<mask id="path-29-inside-14_8298_3467" fill="white">
<path d="M1142 473V266H1252V473H1142Z"/>
</mask>
<path d="M1142 473V266H1252V473H1142Z" fill="white"/>
<path d="M1142 473H1141V474H1142V473ZM1252 473V474H1253V473H1252ZM1143 473V266H1141V473H1143ZM1251 266V473H1253V266H1251ZM1252 472H1142V474H1252V472Z" fill="#63BFFF" mask="url(#path-29-inside-14_8298_3467)"/>
<mask id="path-31-inside-15_8298_3467" fill="white">
<path d="M1238 87L1583 87V197L1238 197V87Z"/>
</mask>
<path d="M1238 87L1583 87V197L1238 197V87Z" fill="white"/>
<path d="M1238 87V86H1237V87H1238ZM1583 87H1584V86H1583V87ZM1238 88L1583 88V86L1238 86V88ZM1582 87V197H1584V87H1582ZM1239 197V87H1237V197H1239Z" fill="#63BFFF" mask="url(#path-31-inside-15_8298_3467)"/>
<mask id="path-33-inside-16_8298_3467" fill="white">
<path d="M1582 44L1841 44V197L1582 197V44Z"/>
</mask>
<path d="M1582 44L1841 44V197L1582 197V44Z" fill="white"/>
<path d="M1582 44V43H1581V44H1582ZM1841 44H1842V43H1841V44ZM1582 45L1841 45V43L1582 43V45ZM1840 44V197H1842V44H1840ZM1583 197V44H1581V197H1583Z" fill="#63BFFF" mask="url(#path-33-inside-16_8298_3467)"/>
<mask id="path-35-inside-17_8298_3467" fill="white">
<path d="M1252 473V266H1362V473H1252Z"/>
</mask>
<path d="M1252 473V266H1362V473H1252Z" fill="white"/>
<path d="M1362 472H1252V474H1362V472Z" fill="#63BFFF" mask="url(#path-35-inside-17_8298_3467)"/>
<mask id="path-37-inside-18_8298_3467" fill="white">
<path d="M1582 473V266H1692V473H1582Z"/>
</mask>
<path d="M1582 473V266H1692V473H1582Z" fill="white"/>
<path d="M1692 473V474H1693V473H1692ZM1691 266V473H1693V266H1691ZM1692 472H1582V474H1692V472Z" fill="#63BFFF" mask="url(#path-37-inside-18_8298_3467)"/>
<mask id="path-39-inside-19_8298_3467" fill="white">
<path d="M1692 473V266H1802V473H1692Z"/>
</mask>
<path d="M1692 473V266H1802V473H1692Z" fill="white"/>
<path d="M1802 473V474H1803V473H1802ZM1801 266V473H1803V266H1801ZM1802 472H1692V474H1802V472Z" fill="#63BFFF" mask="url(#path-39-inside-19_8298_3467)"/>
<mask id="path-41-inside-20_8298_3467" fill="white">
<path d="M1362 498V266H1472V498H1362Z"/>
</mask>
<path d="M1362 498V266H1472V498H1362Z" fill="white"/>
<path d="M1362 498H1361V499H1362V498ZM1472 498V499H1473V498H1472ZM1363 498V266H1361V498H1363ZM1471 266V498H1473V266H1471ZM1472 497H1362V499H1472V497Z" fill="#63BFFF" mask="url(#path-41-inside-20_8298_3467)"/>
<mask id="path-43-inside-21_8298_3467" fill="white">
<path d="M1472 498V266H1582V498H1472Z"/>
</mask>
<path d="M1472 498V266H1582V498H1472Z" fill="white"/>
<path d="M1582 498V499H1583V498H1582ZM1581 266V498H1583V266H1581ZM1582 497H1472V499H1582V497Z" fill="#63BFFF" mask="url(#path-43-inside-21_8298_3467)"/>
<path d="M756.238 259.838L761.315 272.654H755.5H755.487V272.667V282.654H750.512V272.667V272.654H750.5H744.685L749.761 259.838C749.762 259.838 749.762 259.838 749.762 259.838C750.038 259.174 750.467 258.648 751.049 258.261C751.63 257.873 752.28 257.679 753 257.679C753.72 257.679 754.37 257.873 754.951 258.261C755.533 258.648 755.962 259.174 756.238 259.838C756.238 259.838 756.238 259.838 756.238 259.838ZM753 255.988C752.087 255.988 751.305 255.663 750.655 255.012C750.004 254.362 749.679 253.58 749.679 252.667C749.679 251.754 750.004 250.972 750.655 250.322C751.305 249.671 752.087 249.346 753 249.346C753.913 249.346 754.695 249.671 755.345 250.322C755.996 250.972 756.321 251.754 756.321 252.667C756.321 253.58 755.996 254.362 755.345 255.012C754.695 255.663 753.913 255.988 753 255.988Z" fill="#BA4667" stroke="#CBCBCB" stroke-width="0.025"/>
<path d="M883.321 271V282.654H876.679V271V270.988H876.667H873.346V261C873.346 260.087 873.671 259.305 874.321 258.655C874.972 258.004 875.753 257.679 876.667 257.679H883.333C884.247 257.679 885.028 258.004 885.679 258.655C886.329 259.305 886.654 260.087 886.654 261V270.988H883.333H883.321V271ZM880 255.988C879.087 255.988 878.305 255.663 877.655 255.012C877.004 254.362 876.679 253.58 876.679 252.667C876.679 251.754 877.004 250.972 877.655 250.322C878.305 249.671 879.087 249.346 880 249.346C880.913 249.346 881.695 249.671 882.345 250.322C882.996 250.972 883.321 251.754 883.321 252.667C883.321 253.58 882.996 254.362 882.345 255.012C881.695 255.663 880.913 255.988 880 255.988Z" fill="#4667BA" stroke="#CBCBCB" stroke-width="0.025"/>
<mask id="path-47-inside-22_8298_3467" fill="white">
<path d="M1024 92H1238V197H1024V92Z"/>
</mask>
<path d="M1024 92H1238V197H1024V92Z" fill="#FBFBFB"/>
<path d="M1024 92V91H1023V92H1024ZM1024 93H1238V91H1024V93ZM1025 197V92H1023V197H1025Z" fill="#63BFFF" mask="url(#path-47-inside-22_8298_3467)"/>
<rect x="1075" y="142" width="115" height="5" fill="#D9D9D9"/>
<rect x="1064" y="102" width="5" height="36" fill="#D9D9D9"/>
<rect x="1072" y="102" width="5" height="36" fill="#D9D9D9"/>
<rect x="1080" y="102" width="5" height="36" fill="#D9D9D9"/>
<rect x="1088" y="102" width="5" height="36" fill="#D9D9D9"/>
<rect x="1096" y="102" width="5" height="36" fill="#D9D9D9"/>
<rect x="1104" y="102" width="5" height="36" fill="#D9D9D9"/>
<rect x="1112" y="102" width="5" height="36" fill="#D9D9D9"/>
<rect x="1120" y="102" width="5" height="36" fill="#D9D9D9"/>
<rect x="1128" y="102" width="5" height="36" fill="#D9D9D9"/>
<rect x="1136" y="102" width="5" height="36" fill="#D9D9D9"/>
<rect x="1144" y="102" width="5" height="36" fill="#D9D9D9"/>
<rect x="1152" y="102" width="5" height="36" fill="#D9D9D9"/>
<rect x="1160" y="102" width="5" height="36" fill="#D9D9D9"/>
<rect x="1168" y="102" width="5" height="36" fill="#D9D9D9"/>
<rect x="1176" y="102" width="5" height="36" fill="#D9D9D9"/>
<rect x="1184" y="102" width="5" height="36" fill="#D9D9D9"/>
<rect x="1192" y="102" width="5" height="36" fill="#D9D9D9"/>
<rect x="1061" y="150" width="5" height="36" fill="#D9D9D9"/>
<rect x="1069" y="150" width="5" height="36" fill="#D9D9D9"/>
<rect x="1077" y="150" width="5" height="36" fill="#D9D9D9"/>
<rect x="1085" y="150" width="5" height="36" fill="#D9D9D9"/>
<rect x="1093" y="150" width="5" height="36" fill="#D9D9D9"/>
<rect x="1101" y="150" width="5" height="36" fill="#D9D9D9"/>
<rect x="1109" y="150" width="5" height="36" fill="#D9D9D9"/>
<rect x="1117" y="150" width="5" height="36" fill="#D9D9D9"/>
<rect x="1125" y="150" width="5" height="36" fill="#D9D9D9"/>
<rect x="1133" y="150" width="5" height="36" fill="#D9D9D9"/>
<rect x="1141" y="150" width="5" height="36" fill="#D9D9D9"/>
<rect x="1149" y="150" width="5" height="36" fill="#D9D9D9"/>
<rect x="1157" y="150" width="5" height="36" fill="#D9D9D9"/>
<rect x="1165" y="150" width="5" height="36" fill="#D9D9D9"/>
<rect x="1173" y="150" width="5" height="36" fill="#D9D9D9"/>
<rect x="1181" y="150" width="5" height="36" fill="#D9D9D9"/>
<rect x="1189" y="150" width="5" height="36" fill="#D9D9D9"/>
<path d="M1129.75 151.438H1127.88V137.219H1129.75V151.438ZM1126.78 150.812H1124.89V146.125H1122.88V144.516H1124.89V142.578H1123.14C1122.8 143.792 1122.24 144.888 1121.47 145.867C1120.7 146.846 1119.67 147.719 1118.38 148.484L1117.2 147.078C1118.62 146.245 1119.67 145.299 1120.37 144.242C1121.07 143.18 1121.48 141.938 1121.62 140.516H1118.03V138.906H1123.61C1123.61 139.599 1123.57 140.286 1123.48 140.969H1124.89V137.531H1126.78V150.812ZM1142.53 141.094H1144.45V142.734H1142.53V147.5H1140.53V137.219H1142.53V141.094ZM1138.22 139.953H1133.8V143.547C1135.15 143.536 1136.22 143.503 1137.02 143.445C1137.83 143.388 1138.61 143.276 1139.38 143.109L1139.58 144.703C1138.72 144.885 1137.82 145.008 1136.88 145.07C1135.95 145.128 1134.65 145.156 1133 145.156H1131.8V138.359H1138.22V139.953ZM1143.05 151.188H1133.31V146.406H1135.3V149.594H1143.05V151.188Z" fill="black"/>
</svg>
